<svg width="40" height="40" viewBox="0 0 40 40" fill="none" xmlns="http://www.w3.org/2000/svg">
<path d="M20 5C13.7869 5 8.75001 10.0368 8.75001 16.25V22.2535L6.33926 28.2861C6.18536 28.6713 6.23249 29.1076 6.46504 29.451C6.69759 29.7944 7.0853 30 7.5 30H15C15 32.7709 17.2291 35 20 35C22.7709 35 25 32.7709 25 30H32.5C32.9148 30 33.3024 29.7944 33.535 29.451C33.7675 29.1076 33.8146 28.6713 33.6608 28.2861L31.25 22.2535V16.25C31.25 10.0368 26.2132 5 20 5ZM22.5 30C22.5 31.3901 21.3901 32.5 20 32.5C18.6099 32.5 17.5 31.3901 17.5 30H22.5ZM11.25 16.25C11.25 11.4175 15.1675 7.5 20 7.5C24.8325 7.5 28.75 11.4175 28.75 16.25V22.494C28.75 22.6529 28.7802 22.8104 28.8392 22.9579L30.6544 27.5H9.34564L11.1608 22.9579C11.2197 22.8104 11.25 22.6529 11.25 22.494V16.25Z" fill="#C8C8C8"/>
</svg>
