<svg width="40" height="39" viewBox="0 0 40 39" fill="none" xmlns="http://www.w3.org/2000/svg">
<path d="M24.3725 15.1724C26.0866 15.1724 27.4759 16.5619 27.4759 18.2759V26.8952C27.4759 31.0857 24.0788 34.4828 19.8884 34.4828C15.6977 34.4828 12.3007 31.0857 12.3007 26.8952V18.2759C12.3007 16.5619 13.6901 15.1724 15.4041 15.1724H24.3725ZM24.3725 17.2414H15.4041C14.8328 17.2414 14.3696 17.7046 14.3696 18.2759V26.8952C14.3696 29.943 16.8405 32.4138 19.8884 32.4138C22.9362 32.4138 25.407 29.943 25.407 26.8952V18.2759C25.407 17.7046 24.9439 17.2414 24.3725 17.2414ZM6.43597 15.1724L12.169 15.1728C11.6246 15.7401 11.2281 16.4505 11.0412 17.2418L6.43597 17.2414C5.86463 17.2414 5.40149 17.7046 5.40149 18.2759V25.5156C5.40149 27.8018 7.25487 29.6552 9.54113 29.6552C10.1492 29.6552 10.7267 29.524 11.2468 29.2886C11.4309 29.9636 11.6943 30.6068 12.0247 31.2079C11.2647 31.5397 10.4245 31.7241 9.54113 31.7241C6.1122 31.7241 3.33252 28.9444 3.33252 25.5156V18.2759C3.33252 16.5619 4.72197 15.1724 6.43597 15.1724ZM33.3325 15.1724C35.0466 15.1724 36.4359 16.5619 36.4359 18.2759V25.5172C36.4359 28.9452 33.657 31.7241 30.229 31.7241C29.3475 31.7241 28.509 31.5404 27.7496 31.2091L27.8264 31.0695C28.1217 30.5092 28.3594 29.9138 28.5315 29.2913C29.0481 29.5251 29.6234 29.6552 30.229 29.6552C32.5144 29.6552 34.367 27.8026 34.367 25.5172V18.2759C34.367 17.7046 33.9038 17.2414 33.3325 17.2414L28.7355 17.2418C28.5486 16.4505 28.1521 15.7401 27.6077 15.1728L33.3325 15.1724ZM19.8842 4.13794C22.5504 4.13794 24.7118 6.29932 24.7118 8.96553C24.7118 11.6317 22.5504 13.7931 19.8842 13.7931C17.218 13.7931 15.0566 11.6317 15.0566 8.96553C15.0566 6.29932 17.218 4.13794 19.8842 4.13794ZM30.9228 5.51725C33.2082 5.51725 35.0608 7.36987 35.0608 9.65518C35.0608 11.9405 33.2082 13.7931 30.9228 13.7931C28.6375 13.7931 26.7849 11.9405 26.7849 9.65518C26.7849 7.36987 28.6375 5.51725 30.9228 5.51725ZM8.84564 5.51725C11.131 5.51725 12.9836 7.36987 12.9836 9.65518C12.9836 11.9405 11.131 13.7931 8.84564 13.7931C6.56033 13.7931 4.70771 11.9405 4.70771 9.65518C4.70771 7.36987 6.56033 5.51725 8.84564 5.51725ZM19.8842 6.2069C18.3606 6.2069 17.1256 7.44198 17.1256 8.96553C17.1256 10.4891 18.3606 11.7241 19.8842 11.7241C21.4078 11.7241 22.6428 10.4891 22.6428 8.96553C22.6428 7.44198 21.4078 6.2069 19.8842 6.2069ZM30.9228 7.58622C29.7802 7.58622 28.8539 8.51252 28.8539 9.65518C28.8539 10.7978 29.7802 11.7241 30.9228 11.7241C32.0655 11.7241 32.9918 10.7978 32.9918 9.65518C32.9918 8.51252 32.0655 7.58622 30.9228 7.58622ZM8.84564 7.58622C7.70298 7.58622 6.77667 8.51252 6.77667 9.65518C6.77667 10.7978 7.70298 11.7241 8.84564 11.7241C9.9883 11.7241 10.9146 10.7978 10.9146 9.65518C10.9146 8.51252 9.9883 7.58622 8.84564 7.58622Z" fill="#C8C8C8"/>
</svg>
