<svg width="40" height="40" viewBox="0 0 40 40" fill="none" xmlns="http://www.w3.org/2000/svg">
<path d="M4.58713 29.9994H35.4204C36.1108 29.9994 36.6704 30.5591 36.6704 31.2494C36.6704 31.8823 36.2003 32.4053 35.5901 32.4879L35.4204 32.4994H4.58713C3.89678 32.4994 3.33713 31.9398 3.33713 31.2494C3.33713 30.6166 3.80739 30.0936 4.41751 30.0108L4.58713 29.9994H35.4204H4.58713ZM4.58713 19.1711H35.4204C36.1108 19.1711 36.6704 19.7308 36.6704 20.4211C36.6704 21.0539 36.2003 21.5769 35.5901 21.6598L35.4204 21.6711H4.58713C3.89678 21.6711 3.33713 21.1114 3.33713 20.4211C3.33713 19.7883 3.80739 19.2653 4.41751 19.1824L4.58713 19.1711H35.4204H4.58713ZM4.58569 8.33813H35.4191C36.1094 8.33813 36.6691 8.89778 36.6691 9.58813C36.6691 10.221 36.1988 10.744 35.5886 10.8267L35.4191 10.8381H4.58569C3.89534 10.8381 3.33569 10.2785 3.33569 9.58813C3.33569 8.9553 3.80596 8.43232 4.41608 8.34955L4.58569 8.33813H35.4191H4.58569Z" fill="white"/>
</svg>
