<svg width="40" height="40" viewBox="0 0 40 40" fill="none" xmlns="http://www.w3.org/2000/svg">
<path d="M13.3334 17.6488C13.3334 18.9473 14.3861 19.9999 15.6846 19.9999H24.3156C25.6141 19.9999 26.6667 18.9473 26.6667 17.6488C26.6667 15.2653 24.7347 13.3333 22.3512 13.3333H17.6489C15.2655 13.3333 13.3334 15.2653 13.3334 17.6488ZM17.6489 15.4166H22.3512C23.5841 15.4166 24.5834 16.4159 24.5834 17.6488C24.5834 17.7967 24.4635 17.9166 24.3156 17.9166H15.6846C15.5367 17.9166 15.4167 17.7967 15.4167 17.6488C15.4167 16.4159 16.4161 15.4166 17.6489 15.4166ZM20.0001 3.33325C16.5682 3.33325 13.7419 5.92647 13.374 9.26034C9.36625 11.5599 6.66675 15.8813 6.66675 20.8333V32.2916C6.66675 34.7078 8.6255 36.6666 11.0417 36.6666H28.9584C31.3747 36.6666 33.3334 34.7078 33.3334 32.2916V20.8333C33.3334 15.8813 30.6339 11.5599 26.6262 9.26034C26.2582 5.92647 23.432 3.33325 20.0001 3.33325ZM31.2501 23.3333H8.75008V20.8333C8.75008 14.6201 13.7869 9.58325 20.0001 9.58325C26.2132 9.58325 31.2501 14.6201 31.2501 20.8333V23.3333ZM13.3334 25.4166V28.1249C13.3334 28.7003 13.7997 29.1666 14.3751 29.1666C14.9504 29.1666 15.4167 28.7003 15.4167 28.1249V25.4166H31.2501V32.2916C31.2501 33.5573 30.2241 34.5833 28.9584 34.5833H11.0417C9.77608 34.5833 8.75008 33.5573 8.75008 32.2916V25.4166H13.3334ZM20.0001 7.49992C18.5302 7.49992 17.1159 7.73776 15.7936 8.17705C16.4984 6.55272 18.1166 5.41659 20.0001 5.41659C21.8836 5.41659 23.5017 6.55272 24.2066 8.17705C22.8842 7.73776 21.4699 7.49992 20.0001 7.49992Z" fill="#C8C8C8"/>
</svg>
