<svg width="40" height="40" viewBox="0 0 40 40" fill="none" xmlns="http://www.w3.org/2000/svg">
<path d="M11.7857 19.9999C11.7857 21.7751 10.3467 23.2142 8.57146 23.2142C6.79626 23.2142 5.35718 21.7751 5.35718 19.9999C5.35718 18.2248 6.79626 16.7856 8.57146 16.7856C10.3467 16.7856 11.7857 18.2248 11.7857 19.9999ZM23.2143 19.9999C23.2143 21.7751 21.7752 23.2142 20 23.2142C18.2249 23.2142 16.7857 21.7751 16.7857 19.9999C16.7857 18.2248 18.2249 16.7856 20 16.7856C21.7752 16.7856 23.2143 18.2248 23.2143 19.9999ZM31.4286 23.2142C33.2037 23.2142 34.6429 21.7751 34.6429 19.9999C34.6429 18.2248 33.2037 16.7856 31.4286 16.7856C29.6535 16.7856 28.2143 18.2248 28.2143 19.9999C28.2143 21.7751 29.6535 23.2142 31.4286 23.2142Z" fill="#C8C8C8"/>
</svg>
